<svg width="171" height="53" viewBox="0 0 171 53" fill="none" xmlns="http://www.w3.org/2000/svg">
<path d="M156.641 51.9268C151.743 51.9268 148.136 50.8526 145.821 48.7042C143.55 46.507 142.258 43.4554 141.947 39.5493H150.096C150.452 41.4047 151.075 42.7718 151.966 43.6507C152.856 44.4807 154.304 44.8958 156.307 44.8958C158.4 44.8958 159.847 44.554 160.649 43.8704C161.45 43.138 161.851 42.1859 161.851 41.0141C161.851 39.7934 161.361 38.8657 160.382 38.231C159.447 37.5474 158.267 36.9859 156.842 36.5465C155.417 36.107 153.881 35.692 152.233 35.3014C150.585 34.862 149.049 34.2516 147.624 33.4704C146.199 32.6404 144.997 31.5418 144.017 30.1746C143.082 28.8075 142.615 26.9521 142.615 24.6084C142.615 23.0948 142.882 21.7033 143.416 20.4338C143.951 19.1155 144.752 17.9925 145.821 17.0648C146.89 16.0883 148.225 15.3315 149.828 14.7944C151.476 14.2573 153.413 13.9887 155.639 13.9887C160.27 13.9887 163.677 15.0385 165.859 17.138C168.041 19.2376 169.31 22.0695 169.666 25.6338H161.517C161.161 24.0714 160.56 22.9239 159.714 22.1915C158.912 21.4103 157.554 21.0197 155.639 21.0197C153.814 21.0197 152.545 21.3371 151.832 21.9718C151.12 22.6066 150.764 23.461 150.764 24.5352C150.764 25.707 151.231 26.5859 152.166 27.1718C153.146 27.7089 154.348 28.1728 155.773 28.5634C157.198 28.954 158.734 29.369 160.382 29.8084C162.029 30.1991 163.566 30.8094 164.991 31.6394C166.415 32.4695 167.595 33.6169 168.531 35.0817C169.51 36.4976 170 38.4507 170 40.9408C170 42.5033 169.711 43.9681 169.132 45.3352C168.597 46.6535 167.774 47.8009 166.66 48.7775C165.592 49.754 164.211 50.5352 162.519 51.1211C160.872 51.6582 158.912 51.9268 156.641 51.9268Z" fill="#1B1B1B"/>
<path d="M155.639 13.4887C160.333 13.4887 163.892 14.5511 166.206 16.7778C168.488 18.9742 169.798 21.9247 170.164 25.5844L170.218 26.1342H161.119L161.03 25.7446C160.687 24.2428 160.124 23.2082 159.386 22.5698L159.375 22.56L159.365 22.5493C158.704 21.9055 157.51 21.52 155.639 21.52C153.839 21.52 152.732 21.8395 152.165 22.3452C151.573 22.8725 151.263 23.5842 151.263 24.5356C151.263 25.5437 151.65 26.254 152.422 26.7417C153.356 27.2515 154.514 27.7003 155.905 28.0815C157.324 28.4707 158.855 28.8839 160.497 29.3217C162.191 29.7234 163.774 30.352 165.243 31.2075C166.735 32.0768 167.968 33.2767 168.942 34.7973L169.133 35.0903C170.06 36.5867 170.5 38.5516 170.5 40.9409C170.5 42.5638 170.198 44.0921 169.594 45.5219L169.595 45.5229C169.032 46.9136 168.162 48.1216 166.997 49.146L166.998 49.1469C165.868 50.1787 164.424 50.9902 162.683 51.5932L162.674 51.5962C160.964 52.1537 158.949 52.4272 156.641 52.4272C151.684 52.4272 147.928 51.3415 145.481 49.0708L145.473 49.0639C143.095 46.7632 141.768 43.5863 141.449 39.5893L141.406 39.0493H150.508L150.586 39.4546C150.931 41.2505 151.522 42.5038 152.307 43.2846L152.455 43.4135C153.225 44.0372 154.475 44.3959 156.307 44.396C158.379 44.396 159.665 44.0503 160.322 43.4917C161.004 42.8634 161.351 42.0528 161.351 41.0141C161.351 39.9537 160.94 39.1885 160.11 38.6508L160.098 38.643L160.086 38.6342C159.207 37.9914 158.081 37.4514 156.695 37.0239C155.282 36.5881 153.756 36.176 152.118 35.7876L152.104 35.7846C150.42 35.3354 148.846 34.71 147.384 33.9087L147.373 33.9028C145.886 33.0366 144.631 31.8895 143.611 30.4663L143.605 30.4565C142.594 28.9784 142.115 27.0128 142.115 24.6088C142.115 23.0375 142.392 21.5807 142.953 20.2456C143.516 18.8547 144.364 17.6665 145.493 16.687C146.619 15.6603 148.016 14.8738 149.669 14.3198L149.673 14.3188C151.383 13.7615 153.374 13.4888 155.639 13.4887Z" stroke="#7733DD" stroke-opacity="0.9"/>
<path d="M121.906 52C116.874 52 112.934 50.4376 110.084 47.3127C107.278 44.139 105.876 39.6225 105.876 33.7634V32.1521C105.876 29.2714 106.232 26.708 106.944 24.462C107.701 22.1671 108.748 20.2385 110.084 18.6761C111.464 17.1136 113.112 15.9418 115.026 15.1606C116.986 14.3305 119.168 13.9155 121.572 13.9155C126.426 13.9155 130.255 15.5023 133.061 18.6761C135.866 21.8498 137.269 26.4638 137.269 32.5183V35.5944H113.691C113.913 38.8169 114.648 41.1606 115.895 42.6254C117.142 44.0901 119.034 44.8225 121.572 44.8225C125.58 44.8225 128.029 43.3089 128.919 40.2817H136.935C136.178 44.0901 134.486 46.9953 131.858 48.9972C129.276 50.9991 125.958 52 121.906 52ZM121.572 21.093C119.212 21.093 117.409 21.7521 116.162 23.0704C114.915 24.3399 114.114 26.415 113.757 29.2958H129.387C129.075 26.415 128.296 24.3399 127.049 23.0704C125.802 21.7521 123.977 21.093 121.572 21.093Z" fill="#1B1B1B"/>
<path d="M121.572 13.4155C126.546 13.4155 130.521 15.0479 133.435 18.3452C136.35 21.6427 137.768 26.3936 137.768 32.518V36.0942H114.232C114.493 38.9908 115.196 41.0333 116.275 42.3012C117.399 43.6213 119.131 44.3227 121.572 44.3227C123.518 44.3227 125.032 43.9546 126.152 43.2622C127.261 42.5766 128.026 41.5477 128.44 40.1401L128.546 39.7817H137.544L137.426 40.3794C136.649 44.285 134.903 47.3066 132.162 49.395L132.161 49.394C129.472 51.4771 126.04 52.5005 121.906 52.5005C116.763 52.5004 112.677 50.8981 109.715 47.6499L109.709 47.644C106.796 44.3491 105.376 39.6974 105.376 33.7631V32.1518C105.376 29.231 105.737 26.6152 106.468 24.311L106.469 24.3051C107.243 21.9593 108.319 19.9707 109.704 18.351L109.709 18.3452C111.05 16.8267 112.638 15.6615 114.469 14.854L114.838 14.6977C116.864 13.8401 119.112 13.4155 121.572 13.4155ZM121.572 21.5932C119.306 21.5933 117.651 22.2229 116.525 23.4135L116.518 23.4204C115.46 24.4977 114.711 26.2631 114.331 28.7954H128.822C128.48 26.2606 127.749 24.4962 126.692 23.4204L126.686 23.4145L127.05 23.0708L126.686 23.4135C125.562 22.2246 123.886 21.5932 121.572 21.5932Z" stroke="#7733DD" stroke-opacity="0.9"/>
<path d="M96.8351 51.2676C95.0094 51.2676 93.4731 51.0235 92.2263 50.5352C90.9795 50.0469 89.9331 49.4122 89.087 48.631C88.2855 47.8498 87.6621 46.9953 87.2168 46.0676C86.7715 45.0911 86.4376 44.1634 86.2149 43.2845C86.0368 42.4056 85.9255 41.6 85.8809 40.8676C85.8364 40.1352 85.8141 39.5737 85.8141 39.1831V22.4113H79.8027V14.6479H85.8141V4.39436H93.5622V14.6479H101.845V22.4113H93.5622V38.0113C93.5622 38.4019 93.5845 38.9145 93.629 39.5493C93.6735 40.184 93.8516 40.7944 94.1633 41.3803C94.475 41.9662 94.9426 42.4789 95.566 42.9183C96.1894 43.3089 97.08 43.5042 98.2377 43.5042H102.513V51.2676H96.8351Z" fill="#1B1B1B"/>
<path d="M94.0625 3.89436V14.1483H102.345V22.911H94.0625V38.0116C94.0625 38.3855 94.0838 38.8853 94.1279 39.5145C94.1674 40.0762 94.3243 40.6187 94.6045 41.1453C94.8728 41.6496 95.2807 42.1033 95.8447 42.5028C96.3554 42.8176 97.134 43.0037 98.2373 43.0037H103.013V51.7674H96.835C94.9681 51.7674 93.3658 51.5184 92.0439 51.0008C90.7485 50.4935 89.6466 49.8276 88.748 48.9979L88.7383 48.9891C87.8985 48.1706 87.2384 47.269 86.7656 46.284L86.7617 46.2752C86.3062 45.2762 85.9617 44.3197 85.7305 43.4071L85.7246 43.3836C85.5429 42.487 85.4281 41.6581 85.3818 40.8983C85.3371 40.1631 85.3145 39.5894 85.3145 39.1834V22.911H79.3027V14.1483H85.3145V3.89436H94.0625Z" stroke="#7733DD" stroke-opacity="0.9"/>
<path d="M61.1137 52C56.0819 52 52.1411 50.4376 49.2912 47.3127C46.4859 44.139 45.0833 39.6225 45.0833 33.7634V32.1521C45.0833 29.2714 45.4395 26.708 46.1519 24.462C46.9089 22.216 47.9776 20.3117 49.358 18.7493C50.783 17.1869 52.4751 15.9906 54.4343 15.1606C56.3936 14.3305 58.6201 13.9155 61.1137 13.9155C66.1455 13.9155 70.064 15.5023 72.8694 18.6761C75.7192 21.8009 77.1441 26.293 77.1441 32.1521V33.7634C77.1441 36.6441 76.7656 39.2075 76.0087 41.4535C75.2962 43.6995 74.2275 45.6038 72.8026 47.1662C71.4222 48.7286 69.7301 49.9249 67.7263 50.7549C65.767 51.585 63.5628 52 61.1137 52ZM61.1137 44.2366C63.5628 44.2366 65.4775 43.4066 66.8579 41.7465C68.2829 40.0376 68.9953 37.3765 68.9953 33.7634V32.1521C68.9953 28.6366 68.2829 26.0244 66.8579 24.3155C65.433 22.5577 63.5183 21.6789 61.1137 21.6789C58.6646 21.6789 56.7276 22.5333 55.3027 24.2423C53.9223 25.9023 53.2321 28.539 53.2321 32.1521V33.7634C53.2321 37.2789 53.9445 39.9155 55.3695 41.6732C56.7944 43.3822 58.7091 44.2366 61.1137 44.2366Z" fill="#1B1B1B"/>
<path d="M61.1135 13.4155C66.2591 13.4155 70.3262 15.0438 73.2444 18.3452H73.2434C76.2014 21.5922 77.6438 26.2198 77.6438 32.1518V33.7631C77.6438 36.6831 77.2602 39.299 76.4846 41.604C75.7528 43.911 74.6511 45.8817 73.1721 47.5034C71.7403 49.1222 69.9859 50.3604 67.9172 51.2172L67.9163 51.2163C65.8878 52.0748 63.6177 52.5005 61.1135 52.5005C55.9704 52.5004 51.8846 50.8981 48.9221 47.6499L48.9163 47.644C46.0038 44.3491 44.5833 39.6974 44.5833 33.7631V32.1518C44.5833 29.231 44.9442 26.6152 45.675 24.311L45.678 24.3022C46.4534 22.0017 47.5535 20.0372 48.9836 18.4184L48.9885 18.4126C50.4623 16.7965 52.2143 15.5586 54.2395 14.7006C56.2701 13.8404 58.5643 13.4155 61.1135 13.4155ZM61.1135 22.1792C58.9408 22.1792 57.2321 22.8829 55.9397 24.2749L55.6868 24.562C54.4171 26.089 53.7317 28.5834 53.7317 32.1518V33.7631C53.7317 37.2201 54.4338 39.7217 55.7532 41.353C57.0747 42.9379 58.8438 43.7367 61.1135 43.7368C63.4364 43.7368 65.2019 42.9568 66.4739 41.4272V41.4262C67.7895 39.8484 68.4954 37.3273 68.4954 33.7631V32.1518C68.4953 28.6895 67.7911 26.215 66.4739 24.6352L66.47 24.6303C65.1466 22.9979 63.3782 22.1792 61.1135 22.1792Z" stroke="#7733DD" stroke-opacity="0.9"/>
<path d="M0 0H11.3549L29.9235 38.8169H30.0571V0H38.0723V51.2676H27.3853L8.14881 10.9859H8.01522V51.2676H0V0Z" fill="#1B1B1B"/>
<path d="M11.6699 -0.5L11.8057 -0.21582L29.5566 36.8906V-0.5H38.5723V51.7676H27.0703L26.9346 51.4834L8.51562 12.9141V51.7676H-0.5V-0.5H11.6699Z" stroke="#7733DD" stroke-opacity="0.9"/>
</svg>
