<svg width="34" height="34" viewBox="0 0 34 34" fill="none" xmlns="http://www.w3.org/2000/svg">
<path d="M21 10.5H27M24 7.5V13.5M26 17V24.5C26 25.0304 25.7893 25.5391 25.4142 25.9142C25.0391 26.2893 24.5304 26.5 24 26.5H10C9.46957 26.5 8.96086 26.2893 8.58579 25.9142C8.21071 25.5391 8 25.0304 8 24.5V10.5C8 9.96957 8.21071 9.46086 8.58579 9.08579C8.96086 8.71071 9.46957 8.5 10 8.5H17.5M26 20.5L22.914 17.414C22.5389 17.0391 22.0303 16.8284 21.5 16.8284C20.9697 16.8284 20.4611 17.0391 20.086 17.414L11 26.5M16 14.5C16 15.6046 15.1046 16.5 14 16.5C12.8954 16.5 12 15.6046 12 14.5C12 13.3954 12.8954 12.5 14 12.5C15.1046 12.5 16 13.3954 16 14.5Z" stroke="#1B1B1B" stroke-width="2" stroke-linecap="round" stroke-linejoin="round"/>
</svg>
