<svg width="34" height="34" viewBox="0 0 34 34" fill="none" xmlns="http://www.w3.org/2000/svg">
<path d="M20.9999 10.0006L24.9999 14.0006M27.1739 11.8126C27.7026 11.284 27.9997 10.5671 27.9998 9.81948C27.9999 9.07186 27.703 8.35483 27.1744 7.82613C26.6459 7.29742 25.9289 7.00034 25.1813 7.00024C24.4337 7.00015 23.7166 7.29705 23.1879 7.82563L9.84193 21.1746C9.60975 21.4061 9.43805 21.6912 9.34193 22.0046L8.02093 26.3566C7.99509 26.4431 7.99314 26.535 8.01529 26.6225C8.03743 26.71 8.08285 26.7899 8.14673 26.8536C8.21061 26.9174 8.29055 26.9627 8.37809 26.9847C8.46563 27.0067 8.55749 27.0046 8.64393 26.9786L12.9969 25.6586C13.3101 25.5634 13.5951 25.3927 13.8269 25.1616L27.1739 11.8126Z" stroke="#1B1B1B" stroke-width="2" stroke-linecap="round" stroke-linejoin="round"/>
</svg>
