<svg width="46" height="46" viewBox="0 0 46 46" fill="none" xmlns="http://www.w3.org/2000/svg">
<path d="M19.1667 21.0835V32.5835M26.8333 21.0835V32.5835M36.4167 11.5002V38.3335C36.4167 39.3502 36.0128 40.3252 35.2939 41.0441C34.575 41.763 33.6 42.1668 32.5833 42.1668H13.4167C12.4 42.1668 11.425 41.763 10.7061 41.0441C9.9872 40.3252 9.58333 39.3502 9.58333 38.3335V11.5002M5.75 11.5002H40.25M15.3333 11.5002V7.66683C15.3333 6.65017 15.7372 5.67514 16.4561 4.95625C17.175 4.23736 18.15 3.8335 19.1667 3.8335H26.8333C27.85 3.8335 28.825 4.23736 29.5439 4.95625C30.2628 5.67514 30.6667 6.65017 30.6667 7.66683V11.5002" stroke="#7733DD" stroke-opacity="0.9" stroke-width="3.83333" stroke-linecap="round" stroke-linejoin="round"/>
</svg>
