<svg width="24" height="24" viewBox="0 0 24 24" fill="none" xmlns="http://www.w3.org/2000/svg">
<path d="M8.23534 1.17647H2.35298C1.70324 1.17647 1.17651 1.70319 1.17651 2.35294V8.23529C1.17651 8.88504 1.70324 9.41177 2.35298 9.41177H8.23534C8.88508 9.41177 9.41181 8.88504 9.41181 8.23529V2.35294C9.41181 1.70319 8.88508 1.17647 8.23534 1.17647Z" stroke="#1B1B1B" stroke-width="2.35294" stroke-linecap="round" stroke-linejoin="round"/>
<path d="M21.1765 1.17647H15.2942C14.6444 1.17647 14.1177 1.70319 14.1177 2.35294V8.23529C14.1177 8.88504 14.6444 9.41177 15.2942 9.41177H21.1765C21.8263 9.41177 22.353 8.88504 22.353 8.23529V2.35294C22.353 1.70319 21.8263 1.17647 21.1765 1.17647Z" stroke="#1B1B1B" stroke-width="2.35294" stroke-linecap="round" stroke-linejoin="round"/>
<path d="M21.1765 14.1176H15.2942C14.6444 14.1176 14.1177 14.6444 14.1177 15.2941V21.1765C14.1177 21.8262 14.6444 22.3529 15.2942 22.3529H21.1765C21.8263 22.3529 22.353 21.8262 22.353 21.1765V15.2941C22.353 14.6444 21.8263 14.1176 21.1765 14.1176Z" stroke="#1B1B1B" stroke-width="2.35294" stroke-linecap="round" stroke-linejoin="round"/>
<path d="M8.23534 14.1176H2.35298C1.70324 14.1176 1.17651 14.6444 1.17651 15.2941V21.1765C1.17651 21.8262 1.70324 22.3529 2.35298 22.3529H8.23534C8.88508 22.3529 9.41181 21.8262 9.41181 21.1765V15.2941C9.41181 14.6444 8.88508 14.1176 8.23534 14.1176Z" stroke="#1B1B1B" stroke-width="2.35294" stroke-linecap="round" stroke-linejoin="round"/>
</svg>
