<svg width="24" height="24" viewBox="0 0 24 24" fill="none" xmlns="http://www.w3.org/2000/svg">
<path d="M14.1177 2.35294H22.353M14.1177 8.23529H22.353M14.1177 15.2941H22.353M14.1177 21.1765H22.353M2.35298 1.17647H8.23534C8.88508 1.17647 9.41181 1.70319 9.41181 2.35294V8.23529C9.41181 8.88504 8.88508 9.41177 8.23534 9.41177H2.35298C1.70324 9.41177 1.17651 8.88504 1.17651 8.23529V2.35294C1.17651 1.70319 1.70324 1.17647 2.35298 1.17647ZM2.35298 14.1176H8.23534C8.88508 14.1176 9.41181 14.6444 9.41181 15.2941V21.1765C9.41181 21.8262 8.88508 22.3529 8.23534 22.3529H2.35298C1.70324 22.3529 1.17651 21.8262 1.17651 21.1765V15.2941C1.17651 14.6444 1.70324 14.1176 2.35298 14.1176Z" stroke="#1B1B1B" stroke-width="2.35294" stroke-linecap="round" stroke-linejoin="round"/>
</svg>
